<svg version="1.1" xmlns="http://www.w3.org/2000/svg" viewBox="0 0 789.2904594378042 397.08038590171236" width="789.2904594378042" height="397.08038590171236">
  <!-- svg-source:excalidraw -->
  
  <defs>
    <style>
      @font-face {
        font-family: "Virgil";
        src: url("https://excalidraw.com/Virgil.woff2");
      }
      @font-face {
        font-family: "Cascadia";
        src: url("https://excalidraw.com/Cascadia.woff2");
      }
    </style>
  </defs>
  <rect x="0" y="0" width="789.2904594378042" height="397.08038590171236" fill="#ffffff"></rect><g transform="translate(248.8013845140283 179.09090909090912) rotate(0 49 100)"><text x="0" y="18" font-family="Virgil, Segoe UI Emoji" font-size="20px" fill="#000000" text-anchor="start" style="white-space: pre;" direction="ltr">Home</text><text x="0" y="43" font-family="Virgil, Segoe UI Emoji" font-size="20px" fill="#000000" text-anchor="start" style="white-space: pre;" direction="ltr">About</text><text x="0" y="68" font-family="Virgil, Segoe UI Emoji" font-size="20px" fill="#000000" text-anchor="start" style="white-space: pre;" direction="ltr">Careers</text><text x="0" y="93" font-family="Virgil, Segoe UI Emoji" font-size="20px" fill="#000000" text-anchor="start" style="white-space: pre;" direction="ltr">Partners</text><text x="0" y="118" font-family="Virgil, Segoe UI Emoji" font-size="20px" fill="#000000" text-anchor="start" style="white-space: pre;" direction="ltr">Gallery</text><text x="0" y="143" font-family="Virgil, Segoe UI Emoji" font-size="20px" fill="#000000" text-anchor="start" style="white-space: pre;" direction="ltr">News/Blog</text><text x="0" y="168" font-family="Virgil, Segoe UI Emoji" font-size="20px" fill="#000000" text-anchor="start" style="white-space: pre;" direction="ltr">Socials</text><text x="0" y="193" font-family="Virgil, Segoe UI Emoji" font-size="20px" fill="#000000" text-anchor="start" style="white-space: pre;" direction="ltr">Contacts</text></g><g transform="translate(319.71047542311953 188.5454545454545) rotate(0 -5.454545454545496 4.31818181818187)" stroke="none"><path fill="#000000" d="M 1.61,2.01 Q 1.61,2.01 0.27,3.02 -1.06,4.02 -1.95,4.84 -2.84,5.65 -3.79,6.30 -4.73,6.95 -6.03,8.02 -7.33,9.08 -8.52,9.84 -9.71,10.60 -11.70,11.07 -13.68,11.54 -14.65,10.14 -15.61,8.75 -15.53,7.32 -15.46,5.88 -15.30,4.54 -15.14,3.20 -15.18,1.99 -15.23,0.79 -15.26,-0.34 -15.30,-1.48 -15.25,-1.89 -15.20,-2.31 -15.05,-2.71 -14.90,-3.10 -14.66,-3.44 -14.42,-3.79 -14.11,-4.07 -13.80,-4.35 -13.42,-4.54 -13.05,-4.74 -12.64,-4.84 -12.23,-4.94 -11.81,-4.94 -11.39,-4.94 -10.98,-4.84 -10.58,-4.74 -10.20,-4.54 -9.83,-4.35 -9.52,-4.07 -9.20,-3.79 -8.96,-3.44 -8.72,-3.10 -8.57,-2.71 -8.43,-2.31 -8.37,-1.89 -8.32,-1.48 -9.25,-2.95 -10.17,-4.43 -9.24,-3.64 -8.31,-2.85 -7.37,-1.93 -6.43,-1.01 -5.44,-0.24 -4.44,0.53 -3.38,1.53 -2.31,2.54 -1.23,3.55 -0.14,4.56 0.72,5.22 1.59,5.88 2.66,6.59 3.74,7.30 4.18,7.64 4.63,7.98 4.95,8.44 5.27,8.90 5.42,9.44 5.57,9.98 5.54,10.54 5.52,11.10 5.31,11.63 5.10,12.15 4.74,12.58 4.38,13.01 3.90,13.30 3.42,13.59 2.87,13.72 2.33,13.84 1.77,13.78 1.21,13.72 0.70,13.49 0.19,13.26 -0.21,12.87 -0.62,12.49 -0.89,11.99 -1.15,11.50 -1.24,10.94 -1.34,10.39 -1.25,9.83 -1.16,9.28 -0.90,8.78 -0.64,8.28 -0.23,7.90 0.16,7.51 0.67,7.27 1.18,7.03 1.74,6.97 2.30,6.91 2.85,7.03 3.39,7.14 3.88,7.43 4.36,7.72 4.72,8.15 5.09,8.57 5.30,9.09 5.51,9.61 5.54,10.17 5.58,10.73 5.43,11.28 5.28,11.82 4.97,12.28 4.65,12.75 4.21,13.09 3.76,13.43 3.23,13.62 2.70,13.80 2.14,13.80 1.58,13.80 1.04,13.62 0.51,13.45 0.51,13.45 0.51,13.45 -1.21,12.28 -2.95,11.11 -3.92,10.32 -4.90,9.53 -5.78,8.70 -6.67,7.86 -7.66,6.91 -8.65,5.96 -10.16,4.75 -11.67,3.54 -12.30,2.57 -12.93,1.60 -14.12,0.06 -15.30,-1.48 -15.25,-1.89 -15.20,-2.31 -15.05,-2.71 -14.90,-3.10 -14.66,-3.44 -14.43,-3.79 -14.11,-4.07 -13.80,-4.35 -13.42,-4.54 -13.05,-4.74 -12.64,-4.84 -12.23,-4.94 -11.81,-4.94 -11.39,-4.94 -10.98,-4.84 -10.58,-4.74 -10.20,-4.54 -9.83,-4.35 -9.52,-4.07 -9.20,-3.79 -8.96,-3.44 -8.72,-3.10 -8.57,-2.71 -8.43,-2.31 -8.37,-1.89 -8.32,-1.48 -8.35,-0.79 -8.37,-0.11 -8.41,1.05 -8.46,2.22 -8.52,3.31 -8.58,4.39 -8.91,5.70 -9.23,7.01 -9.84,7.93 -10.45,8.85 -12.11,7.67 -13.77,6.48 -12.72,5.90 -11.67,5.31 -10.50,4.53 -9.34,3.74 -7.75,2.80 -6.17,1.86 -5.16,1.01 -4.16,0.15 -2.88,-0.93 -1.61,-2.01 -1.34,-2.18 -1.08,-2.34 -0.78,-2.44 -0.49,-2.53 -0.18,-2.55 0.12,-2.57 0.43,-2.52 0.74,-2.47 1.02,-2.34 1.31,-2.22 1.56,-2.03 1.80,-1.84 2.00,-1.60 2.19,-1.35 2.32,-1.07 2.45,-0.79 2.51,-0.48 2.57,-0.18 2.56,0.12 2.54,0.43 2.45,0.73 2.36,1.03 2.20,1.30 2.04,1.57 1.83,1.79 1.61,2.01 1.61,2.01 L 1.61,2.01 Z"></path></g><g transform="translate(329.25592996857404 211.72727272727275) rotate(0 -6.818181818181756 4.090909090909065)" stroke="none"><path fill="#000000" d="M 1.61,2.07 Q 1.61,2.07 0.42,2.96 -0.76,3.86 -2.20,4.89 -3.63,5.91 -4.51,6.60 -5.39,7.29 -6.43,7.96 -7.46,8.62 -8.74,9.21 -10.02,9.81 -11.19,9.91 -12.37,10.02 -13.74,9.59 -15.12,9.17 -15.99,7.18 -16.87,5.20 -16.94,3.92 -17.02,2.64 -17.05,1.71 -17.09,0.79 -17.04,0.37 -16.99,-0.03 -16.84,-0.42 -16.69,-0.81 -16.46,-1.15 -16.22,-1.50 -15.91,-1.77 -15.60,-2.05 -15.23,-2.24 -14.86,-2.44 -14.45,-2.54 -14.05,-2.64 -13.63,-2.64 -13.22,-2.64 -12.81,-2.54 -12.41,-2.44 -12.04,-2.24 -11.67,-2.05 -11.36,-1.77 -11.04,-1.50 -10.81,-1.15 -10.57,-0.81 -10.42,-0.42 -10.28,-0.03 -10.22,0.37 -10.17,0.78 -9.11,0.90 -8.04,1.01 -6.90,2.03 -5.77,3.06 -4.48,3.91 -3.20,4.76 -2.67,4.94 -2.15,5.13 -1.71,5.48 -1.28,5.82 -0.97,6.29 -0.67,6.76 -0.53,7.30 -0.39,7.84 -0.43,8.39 -0.47,8.95 -0.69,9.46 -0.91,9.97 -1.27,10.39 -1.64,10.81 -2.13,11.09 -2.61,11.37 -3.16,11.47 -3.70,11.58 -4.25,11.51 -4.81,11.44 -5.31,11.20 -5.81,10.95 -6.21,10.56 -6.60,10.17 -6.85,9.67 -7.11,9.18 -7.18,8.63 -7.26,8.07 -7.16,7.53 -7.06,6.98 -6.79,6.49 -6.52,6.00 -6.11,5.63 -5.70,5.25 -5.19,5.03 -4.68,4.81 -4.12,4.76 -3.57,4.71 -3.03,4.84 -2.48,4.97 -2.01,5.27 -1.54,5.56 -1.19,5.99 -0.84,6.43 -0.64,6.95 -0.44,7.47 -0.43,8.03 -0.41,8.58 -0.57,9.12 -0.73,9.65 -1.05,10.10 -1.37,10.56 -1.82,10.89 -2.27,11.22 -2.80,11.38 -3.33,11.55 -3.89,11.54 -4.45,11.53 -4.44,11.53 -4.44,11.53 -7.46,9.78 -10.48,8.02 -11.38,7.20 -12.29,6.37 -13.49,5.38 -14.70,4.39 -15.90,2.59 -17.09,0.79 -17.04,0.37 -16.99,-0.03 -16.84,-0.42 -16.69,-0.81 -16.46,-1.15 -16.22,-1.49 -15.91,-1.77 -15.60,-2.05 -15.23,-2.24 -14.86,-2.44 -14.45,-2.54 -14.05,-2.64 -13.63,-2.64 -13.22,-2.64 -12.81,-2.54 -12.41,-2.44 -12.04,-2.24 -11.67,-2.05 -11.36,-1.77 -11.04,-1.50 -10.81,-1.15 -10.57,-0.81 -10.42,-0.42 -10.28,-0.03 -10.22,0.37 -10.17,0.78 -10.20,1.47 -10.22,2.15 -10.75,3.08 -11.28,4.00 -10.07,3.36 -8.86,2.71 -7.65,1.96 -6.45,1.22 -5.19,0.50 -3.93,-0.20 -2.77,-1.13 -1.61,-2.07 -1.33,-2.23 -1.06,-2.39 -0.76,-2.48 -0.46,-2.58 -0.14,-2.60 0.16,-2.61 0.47,-2.56 0.78,-2.50 1.07,-2.37 1.36,-2.24 1.61,-2.04 1.86,-1.84 2.05,-1.59 2.25,-1.34 2.37,-1.06 2.50,-0.77 2.56,-0.46 2.61,-0.14 2.59,0.16 2.57,0.48 2.48,0.78 2.38,1.08 2.22,1.35 2.05,1.62 1.83,1.84 1.61,2.07 1.61,2.07 L 1.61,2.07 Z"></path></g><g stroke-linecap="round"><g transform="translate(331.9832026958468 243.090909090909) rotate(0 19.54461396520719 -78.14821367949878)"><path d="M-0.1 -0.44 C6.27 -26.14, 31.91 -128.33, 38.53 -154.29 M-1.61 -1.72 C5.09 -27.72, 33.96 -130.24, 40.7 -155.85" stroke="#000000" stroke-width="1" fill="none"></path></g><g transform="translate(331.9832026958468 243.090909090909) rotate(0 19.54461396520719 -78.14821367949878)"><path d="M42.42 -127.67 C44.18 -135.63, 40.15 -144.29, 41.55 -156.29 M43.34 -126.3 C42.61 -137.98, 41.66 -149.6, 39.89 -156.15" stroke="#000000" stroke-width="1" fill="none"></path></g><g transform="translate(331.9832026958468 243.090909090909) rotate(0 19.54461396520719 -78.14821367949878)"><path d="M22.63 -133.08 C30.83 -139.26, 33.25 -146.16, 41.55 -156.29 M23.54 -131.72 C30.52 -141.49, 37.22 -151.02, 39.89 -156.15" stroke="#000000" stroke-width="1" fill="none"></path></g></g><g transform="translate(364.71047542311976 10) rotate(0 50.5 37.5)"><text x="0" y="18" font-family="Virgil, Segoe UI Emoji" font-size="20px" fill="#000000" text-anchor="start" style="white-space: pre;" direction="ltr">New hires</text><text x="0" y="43" font-family="Virgil, Segoe UI Emoji" font-size="20px" fill="#000000" text-anchor="start" style="white-space: pre;" direction="ltr">Interns</text><text x="0" y="68" font-family="Virgil, Segoe UI Emoji" font-size="20px" fill="#000000" text-anchor="start" style="white-space: pre;" direction="ltr">Volunteers</text></g><g stroke-linecap="round"><g transform="translate(338.80138451402854 265.36363636363626) rotate(0 91.04598812138806 -92.08953334068588)"><path d="M0.87 0.82 C31.27 -29.66, 151.87 -152.25, 182.22 -183.08 M-0.13 0.21 C30.12 -30.64, 150.79 -154.44, 181.25 -185" stroke="#000000" stroke-width="1" fill="none"></path></g><g transform="translate(338.80138451402854 265.36363636363626) rotate(0 91.04598812138806 -92.08953334068588)"><path d="M170.16 -157.8 C173.02 -164.4, 174.79 -174.43, 181.17 -184.77 M167.87 -157.29 C172.59 -167.61, 176.97 -176.18, 181.14 -184.24" stroke="#000000" stroke-width="1" fill="none"></path></g><g transform="translate(338.80138451402854 265.36363636363626) rotate(0 91.04598812138806 -92.08953334068588)"><path d="M155.54 -172.19 C162.55 -174.78, 168.51 -180.69, 181.17 -184.77 M153.24 -171.69 C162.68 -177.32, 171.86 -181.18, 181.14 -184.24" stroke="#000000" stroke-width="1" fill="none"></path></g></g><g transform="translate(528.8013845140283 34.545454545454504) rotate(0 95.50000000000011 25)"><text x="0" y="18" font-family="Virgil, Segoe UI Emoji" font-size="20px" fill="#000000" text-anchor="start" style="white-space: pre;" direction="ltr">Corporate partners</text><text x="0" y="43" font-family="Virgil, Segoe UI Emoji" font-size="20px" fill="#000000" text-anchor="start" style="white-space: pre;" direction="ltr">Sponsors</text></g><g stroke-linecap="round"><g transform="translate(325.4722776196227 295.0755012252114) rotate(0 108.53841624082463 -72.97382480236894)"><path d="M0.99 -0.92 C37.27 -25.08, 181.14 -121.07, 217.03 -145.28 M0.05 1.22 C36.24 -23.28, 180.31 -122.78, 216.19 -147.17" stroke="#000000" stroke-width="1" fill="none"></path></g><g transform="translate(325.4722776196227 295.0755012252114) rotate(0 108.53841624082463 -72.97382480236894)"><path d="M197.22 -122.41 C203.86 -129.72, 206.67 -136.27, 214.72 -145.4 M199.37 -122.42 C204.66 -130.25, 209.14 -138.79, 216.15 -147.5" stroke="#000000" stroke-width="1" fill="none"></path></g><g transform="translate(325.4722776196227 295.0755012252114) rotate(0 108.53841624082463 -72.97382480236894)"><path d="M185.61 -139.33 C195.07 -142.57, 200.74 -144.95, 214.72 -145.4 M187.76 -139.35 C196.82 -141.84, 205.04 -144.92, 216.15 -147.5" stroke="#000000" stroke-width="1" fill="none"></path></g></g><g transform="translate(546.8359139832587 105.62095577066589) rotate(0 52.5 25)"><text x="0" y="18" font-family="Virgil, Segoe UI Emoji" font-size="20px" fill="#000000" text-anchor="start" style="white-space: pre;" direction="ltr">Bootcamps</text><text x="0" y="43" font-family="Virgil, Segoe UI Emoji" font-size="20px" fill="#000000" text-anchor="start" style="white-space: pre;" direction="ltr">Events</text></g><g stroke-linecap="round"><g transform="translate(348.6540958014407 315.53004667975677) rotate(0 130.55043854974463 -56.44799347912726)"><path d="M0.69 -0.15 C44.13 -19, 218.27 -93.85, 261.51 -112.74 M-0.41 -1.28 C42.88 -19.97, 217.8 -92.7, 261.06 -111.26" stroke="#000000" stroke-width="1" fill="none"></path></g><g transform="translate(348.6540958014407 315.53004667975677) rotate(0 130.55043854974463 -56.44799347912726)"><path d="M238.82 -89.28 C246.99 -99.26, 253.88 -107.42, 261.04 -109.5 M239.64 -91.6 C246.74 -97.75, 253.15 -103.83, 260.86 -111.22" stroke="#000000" stroke-width="1" fill="none"></path></g><g transform="translate(348.6540958014407 315.53004667975677) rotate(0 130.55043854974463 -56.44799347912726)"><path d="M230.84 -108.19 C242.03 -111.2, 251.88 -112.35, 261.04 -109.5 M231.67 -110.5 C241.6 -110.35, 250.67 -110.1, 260.86 -111.22" stroke="#000000" stroke-width="1" fill="none"></path></g></g><g transform="translate(567.2904594378042 173.34822849793863) rotate(0 106 12.5)"><text x="0" y="18" font-family="Virgil, Segoe UI Emoji" font-size="20px" fill="#000000" text-anchor="start" style="white-space: pre;" direction="ltr">Description of events</text></g><g stroke-linecap="round"><g transform="translate(247.29045943780443 366.43913758884764) rotate(0 -38.48684192678968 -75.93825563345058)"><path d="M-0.64 0.1 C-13.79 -14.43, -78.21 -62.48, -78.21 -87.51 C-78.2 -112.54, -13.52 -139.54, -0.62 -150.08 M1.23 -0.89 C-11.62 -15.74, -75.65 -64.09, -75.98 -89.27 C-76.32 -114.46, -13.42 -141.94, -0.76 -151.98" stroke="#000000" stroke-width="1" fill="none"></path></g><g transform="translate(247.29045943780443 366.43913758884764) rotate(0 -38.48684192678968 -75.93825563345058)"><path d="M-19.42 -130.18 C-11.61 -134.95, -4.56 -143.69, -0.46 -150.81 M-20.33 -129.54 C-13.66 -134.23, -8.26 -141.73, -1.68 -150.99" stroke="#000000" stroke-width="1" fill="none"></path></g><g transform="translate(247.29045943780443 366.43913758884764) rotate(0 -38.48684192678968 -75.93825563345058)"><path d="M-30.02 -147.75 C-18.44 -146.13, -7.56 -148.53, -0.46 -150.81 M-30.93 -147.1 C-21.08 -146.66, -12.62 -149.09, -1.68 -150.99" stroke="#000000" stroke-width="1" fill="none"></path></g></g><g stroke-linecap="round"><g transform="translate(246.38136852871367 340.98459213430215) rotate(0 -19.24589658399941 -62.31624865642277)"><path d="M-0.53 -0.92 C-7.05 -15.09, -38.93 -64.33, -38.99 -85.15 C-39.05 -105.97, -7.4 -119.26, -0.89 -125.84 M1.4 1.21 C-5.29 -12.84, -39.38 -63.14, -39.88 -84.17 C-40.39 -105.2, -8.43 -118.44, -1.64 -124.96" stroke="#000000" stroke-width="1" fill="none"></path></g><g transform="translate(246.38136852871367 340.98459213430215) rotate(0 -19.24589658399941 -62.31624865642277)"><path d="M-19.55 -102.1 C-14.59 -109.31, -9.07 -114.87, -0.99 -124.56 M-18.19 -102.13 C-13.26 -109.69, -5.7 -117.2, -1.9 -124.49" stroke="#000000" stroke-width="1" fill="none"></path></g><g transform="translate(246.38136852871367 340.98459213430215) rotate(0 -19.24589658399941 -62.31624865642277)"><path d="M-30.31 -117.93 C-21.98 -120.11, -13.07 -120.68, -0.99 -124.56 M-28.95 -117.96 C-20.45 -120.15, -9.22 -122.26, -1.9 -124.49" stroke="#000000" stroke-width="1" fill="none"></path></g></g><g transform="translate(613.2794354178686 269.62880622256864) rotate(0 34.5 37.5)"><text x="0" y="18" font-family="Virgil, Segoe UI Emoji" font-size="20px" fill="#000000" text-anchor="start" style="white-space: pre;" direction="ltr">Speed</text><text x="0" y="43" font-family="Virgil, Segoe UI Emoji" font-size="20px" fill="#000000" text-anchor="start" style="white-space: pre;" direction="ltr">Edit</text><text x="0" y="68" font-family="Virgil, Segoe UI Emoji" font-size="20px" fill="#000000" text-anchor="start" style="white-space: pre;" direction="ltr">Hosting</text></g><g stroke-linecap="round"><g transform="translate(248.24872808022906 188.1742607680235) rotate(0 -55.141958270571195 -58.81222419667944)"><path d="M0.14 -0.23 C-18.07 -19.61, -91.3 -96.21, -109.66 -115.49 M-1.25 -1.4 C-19.54 -21.21, -92.17 -98.52, -110.42 -117.39" stroke="#000000" stroke-width="1" fill="none"></path></g><g transform="translate(248.24872808022906 188.1742607680235) rotate(0 -55.141958270571195 -58.81222419667944)"><path d="M-83.95 -103.45 C-90.04 -107.51, -97.86 -112.72, -111.42 -116.26 M-84.53 -104.09 C-91.05 -107.5, -99.45 -112.16, -109.59 -117.68" stroke="#000000" stroke-width="1" fill="none"></path></g><g transform="translate(248.24872808022906 188.1742607680235) rotate(0 -55.141958270571195 -58.81222419667944)"><path d="M-98.82 -89.31 C-101.07 -97.12, -104.95 -106.07, -111.42 -116.26 M-99.4 -89.95 C-101.87 -97.17, -106.12 -105.79, -109.59 -117.68" stroke="#000000" stroke-width="1" fill="none"></path></g></g><g transform="translate(10 40.47339146787567) rotate(0 92 12.5)"><text x="0" y="18" font-family="Virgil, Segoe UI Emoji" font-size="20px" fill="#000000" text-anchor="start" style="white-space: pre;" direction="ltr">Package,Summaries</text></g><g transform="translate(485.9709945592001 312.08038590171236) rotate(0 24 37.5)"><text x="0" y="18" font-family="Virgil, Segoe UI Emoji" font-size="20px" fill="#000000" text-anchor="start" style="white-space: pre;" direction="ltr">.COM</text><text x="0" y="43" font-family="Virgil, Segoe UI Emoji" font-size="20px" fill="#000000" text-anchor="start" style="white-space: pre;" direction="ltr">.KE</text><text x="0" y="68" font-family="Virgil, Segoe UI Emoji" font-size="20px" fill="#000000" text-anchor="start" style="white-space: pre;" direction="ltr">.UG</text></g></svg>